# xmcd CD database file
#
# Track frame offsets:
#	150
#	15737
#	35462
#	59357
#	81707
#	105000
#	130837
#	149987
#
# Disc length: 2245 seconds
#
# Revision: 2
# Processed by: cddbd v1.5.2PL0 Copyright (c) Steve Scherf et al.
# Submitted via: CDex 1.70beta2
#
DISCID=6e08c308
DTITLE=Kenny James Trio - 玉置浩二作品集
DYEAR=2000
DGENRE=Jazz
TTITLE0=1)恋の予感
TTITLE1=2)碧い瞳のエリス
TTITLE2=3)Friend
TTITLE3=4)虹色だった
TTITLE4=5)悲しみにさよなら
TTITLE5=6)夏の終わりのハーモニー
TTITLE6=7)ワインレッドの心
TTITLE7=8)メロディー
EXTD=YEAR: 2000
EXTT0=
EXTT1=
EXTT2=
EXTT3=
EXTT4=
EXTT5=
EXTT6=
EXTT7=
PLAYORDER=
